<svg width="32" height="32" fill="none" xmlns="http://www.w3.org/2000/svg"><path d="M14.372 2.281L4.176 14.647a.772.772 0 00.597 1.262h5.373c.219 6.003 2.337 10.128 6.304 12.274 3.421 1.848 7.474 1.83 10.155 1.814h.62a.78.78 0 00.752-.58.751.751 0 00.023-.195.764.764 0 00-.39-.671c-7.389-4.19-7.745-7.638-7.762-12.636h5.356a.77.77 0 00.7-.447.786.786 0 00-.103-.827l-10.23-12.36a.78.78 0 00-1.2 0zm9.185 12.08h-4.484a.75.75 0 00-.545.229.784.784 0 00-.23.545c0 3.121.086 5.514 1.171 7.838.936 2.009 2.526 3.747 5.023 5.463-2.279-.069-5-.367-7.302-1.613-3.65-1.974-5.46-5.795-5.51-11.688a.778.778 0 00-.776-.77H6.415l8.56-10.368 8.582 10.363z" fill="#376A98" fill-opacity=".5"/></svg>