<svg width="150" height="150" fill="none" xmlns="http://www.w3.org/2000/svg"><path d="M136.087 33.5L107.962 5.373a2.342 2.342 0 00-1.657-.686H38.337a2.344 2.344 0 00-2.344 2.343v14.063a2.343 2.343 0 104.687 0V9.375h63.282v25.781a2.345 2.345 0 002.343 2.344h25.782v103.125H40.68v-11.719a2.345 2.345 0 00-4-1.657 2.345 2.345 0 00-.687 1.657v14.063a2.345 2.345 0 002.344 2.343h96.093a2.343 2.343 0 002.344-2.343V35.156c0-.621-.247-1.217-.687-1.657zm-27.438-20.81l20.124 20.123h-20.124V12.689z" fill="#F07C00"/><path d="M120.368 77.344H78.18a2.344 2.344 0 010-4.688h42.188A2.342 2.342 0 01122.712 75a2.342 2.342 0 01-2.344 2.344zm0-14.063H78.18a2.344 2.344 0 010-4.687h42.188a2.342 2.342 0 012.344 2.343 2.342 2.342 0 01-2.344 2.344zm0 28.125H78.18a2.344 2.344 0 010-4.687h42.188a2.342 2.342 0 012.344 2.344 2.342 2.342 0 01-2.344 2.343zm0-42.187H78.18a2.344 2.344 0 010-4.688h42.188a2.342 2.342 0 012.344 2.344 2.342 2.342 0 01-2.344 2.344zm0 56.25H78.18a2.342 2.342 0 01-1.657-4.001 2.342 2.342 0 011.657-.687h42.188a2.34 2.34 0 011.657.687 2.34 2.34 0 010 3.314 2.34 2.34 0 01-1.657.687zm0 14.062H71.149a2.346 2.346 0 01-2.344-2.343 2.345 2.345 0 012.344-2.344h49.219a2.343 2.343 0 110 4.687z" fill="#F07C00"/><path fill-rule="evenodd" clip-rule="evenodd" d="M22.973 45.729c-2.75 2.4-4.408 5.533-4.9 9.557h7.22c.398-2.247 1.404-4.212 3.094-5.773m-5.414-3.784c3.352-2.9 7.872-4.454 13.793-4.454 6.154 0 10.616 1.556 13.705 4.369l.007.007c3.087 2.786 4.744 6.736 4.744 12.175 0 4.508-2.084 9.173-6.745 14.025l-5.982 5.886c-.04.039-.079.08-.116.122-2.232 2.536-3.424 5.909-3.787 9.898H32.14c.161-3.016.642-5.36 1.37-7.103.902-2.158 2.77-4.715 5.816-7.667 3.162-3.065 5.372-5.436 6.386-6.994 1.544-2.356 2.335-4.948 2.335-7.727 0-3.42-.855-6.414-2.93-8.588-2.073-2.24-4.997-3.181-8.35-3.181-3.27 0-6.14.945-8.38 3.015M19.9 42.186c4.395-3.804 10.095-5.601 16.866-5.601 6.93 0 12.656 1.763 16.858 5.588 4.268 3.854 6.288 9.18 6.288 15.653 0 6.097-2.857 11.874-8.077 17.3l-.045.046-5.942 5.845c-1.615 1.873-2.624 4.793-2.684 9.117a2.345 2.345 0 01-2.345 2.313H29.735a2.345 2.345 0 01-2.345-2.345c0-4.487.551-8.284 1.793-11.256 1.247-2.985 3.61-6.06 6.879-9.227 3.216-3.118 5.04-5.14 5.72-6.186l.006-.008c1.059-1.615 1.569-3.318 1.569-5.16 0-2.69-.67-4.345-1.642-5.358a2.234 2.234 0 01-.034-.036c-.921-1.002-2.417-1.684-4.915-1.684-2.329 0-3.983.65-5.195 1.77h-.001c-1.128 1.042-1.785 2.503-1.785 4.674a2.345 2.345 0 01-2.345 2.345H15.575a2.345 2.345 0 01-2.345-2.372c.072-6.333 2.25-11.56 6.662-15.412l.008-.006zm15.694 59.001c-1.564 0-2.547.442-3.224 1.12l-.023.022c-.684.666-1.097 1.572-1.097 2.958 0 1.236.37 2.138 1.056 2.868.617.628 1.598 1.086 3.288 1.086 1.701 0 2.684-.464 3.3-1.097.716-.736 1.094-1.633 1.094-2.857 0-1.295-.397-2.208-1.12-2.932l-.022-.022c-.674-.692-1.66-1.146-3.252-1.146zm-6.53-2.208c1.731-1.724 3.999-2.482 6.53-2.482 2.57 0 4.867.78 6.601 2.553 1.678 1.684 2.483 3.826 2.483 6.237 0 2.357-.795 4.455-2.422 6.128-1.728 1.775-4.066 2.516-6.662 2.516-2.595 0-4.933-.741-6.66-2.516l-.024-.024c-1.585-1.677-2.35-3.767-2.35-6.104 0-2.449.789-4.632 2.505-6.308z" fill="#F07C00"/></svg>