<svg width="150" height="150" fill="none" xmlns="http://www.w3.org/2000/svg"><path d="M140.437 120.551l-32.076-32.077a7.013 7.013 0 00-2.276-8.764 7.015 7.015 0 00-9.021.781l-3.314 3.314-5.477-5.477 24.091-24.11a6.964 6.964 0 015.859-1.969 23.417 23.417 0 0023.928-33.365 2.342 2.342 0 00-2.823-1.218c-.357.113-.681.31-.946.575L126.155 30.47h-6.624v-6.624l12.228-12.227a2.355 2.355 0 00.652-2.05 2.347 2.347 0 00-1.295-1.719 23.415 23.415 0 00-31.556 11.7 23.418 23.418 0 00-1.81 12.235 6.971 6.971 0 01-1.977 5.859l-24.08 24.105-36.469-36.466 1.657-1.657a2.342 2.342 0 00-.356-3.607L16.641 6.759a2.344 2.344 0 00-2.958.293l-6.63 6.629a2.343 2.343 0 00-.294 2.96l13.259 19.886a2.343 2.343 0 001.718 1.032c.078.004.156.004.234 0 .622 0 1.218-.248 1.657-.687l1.657-1.657L61.748 71.69l-21.78 21.761a7.252 7.252 0 01-6.024 1.976 23.293 23.293 0 00-19.218 6.696 23.583 23.583 0 00-.469 32.681 23.242 23.242 0 0016.68 7.334h.354a23.438 23.438 0 0023.278-26.224 7.043 7.043 0 011.981-5.883L78.333 88.27l5.472 5.48-3.316 3.319a7.008 7.008 0 007.985 11.292l32.079 32.076a14.054 14.054 0 009.983 4.254 14.053 14.053 0 0010.039-4.119 14.064 14.064 0 00-.138-20.021zm-41.36-79.58a11.61 11.61 0 003.328-9.743 18.747 18.747 0 016.321-16.406 18.735 18.735 0 0117.133-3.945L115.53 21.218a2.345 2.345 0 00-.686 1.657v9.938a2.346 2.346 0 002.343 2.343h9.938a2.34 2.34 0 001.657-.687l10.338-10.328a18.726 18.726 0 01-3.932 17.137 18.733 18.733 0 01-16.404 6.328 11.604 11.604 0 00-9.746 3.319l-24.08 24.09L75 65.061l24.077-24.09zM11.72 15.635l3.916-3.916L31.547 22.33l-9.216 9.213L11.72 15.635zm41.508 91.083a11.69 11.69 0 00-3.305 9.766 18.77 18.77 0 01-10.403 19.105 18.766 18.766 0 11-6.1-35.511 11.918 11.918 0 009.863-3.319L65.065 75l9.95 9.95-21.788 21.768zM28.594 31.91l3.316-3.316 58.526 58.523-3.317 3.314-58.525-58.52zm55.214 71.785a2.354 2.354 0 01-.688-1.659 2.338 2.338 0 01.688-1.658l4.966-4.966 6.628-6.63 4.971-4.972a2.346 2.346 0 014.002 1.66 2.348 2.348 0 01-.688 1.657l-16.57 16.572a2.341 2.341 0 01-3.31-.004zm53.315 33.428a9.604 9.604 0 01-13.256 0l-31.774-31.771 6.63-6.63 6.629-6.629 31.771 31.772a9.365 9.365 0 012.746 6.629 9.381 9.381 0 01-2.746 6.629z" fill="#F07C00"/><path d="M105.349 102.037a2.344 2.344 0 00-3.314 3.315l28.46 28.457a2.34 2.34 0 003.286-.028 2.346 2.346 0 00.028-3.286l-28.46-28.458zm-69.597 4.557a2.34 2.34 0 00-2.265-.607l-10.455 2.812a2.347 2.347 0 00-1.657 1.657l-2.8 10.446a2.346 2.346 0 00.606 2.264l7.653 7.655a2.348 2.348 0 002.264.607l10.458-2.812a2.347 2.347 0 001.657-1.657l2.812-10.458a2.345 2.345 0 00-.605-2.262l-7.668-7.645zm1.28 17.859l-7.845 2.11-5.74-5.743 2.11-7.842 7.841-2.109 5.743 5.74-2.11 7.844zm49-57.171l16.406-16.406a2.345 2.345 0 00-1.665-3.972 2.343 2.343 0 00-1.649.658L82.718 63.968a2.344 2.344 0 103.314 3.314zM63.968 82.718L49.905 96.781a2.344 2.344 0 103.314 3.314l14.063-14.063a2.344 2.344 0 00-3.314-3.314z" fill="#F07C00"/></svg>