<svg width="150" height="150" fill="none" xmlns="http://www.w3.org/2000/svg"><path d="M82.031 91.406H67.97a2.344 2.344 0 01-2.344-2.344v-8.796c-.338-.133-.663-.27-.982-.407l-6.22 6.22a2.344 2.344 0 01-3.314 0l-9.94-9.939a2.344 2.344 0 010-3.314l6.22-6.222a25.76 25.76 0 01-.407-.98h-8.797a2.344 2.344 0 01-2.343-2.344V49.22a2.344 2.344 0 012.343-2.344h8.797c.133-.337.267-.663.407-.982l-6.22-6.22a2.344 2.344 0 010-3.314l9.938-9.938a2.411 2.411 0 013.314 0l6.22 6.22c.319-.138.644-.274.982-.407v-8.797a2.344 2.344 0 012.344-2.343H82.03a2.344 2.344 0 012.344 2.343v8.797c.338.133.663.27.982.407l6.22-6.22a2.344 2.344 0 013.314 0l9.938 9.938a2.345 2.345 0 010 3.314l-6.22 6.22c.14.319.274.645.407.982h8.796a2.345 2.345 0 012.344 2.344v14.06a2.345 2.345 0 01-2.344 2.344h-8.796a25.76 25.76 0 01-.407.98l6.22 6.222a2.345 2.345 0 010 3.314l-9.938 9.938a2.411 2.411 0 01-3.314 0l-6.22-6.22c-.319.138-.644.274-.982.407v8.796a2.344 2.344 0 01-2.344 2.344zM70.312 86.72h9.376v-8.11a2.344 2.344 0 011.624-2.23 19.014 19.014 0 003.388-1.42 2.343 2.343 0 012.784.399l5.75 5.749 6.62-6.624-5.746-5.749a2.345 2.345 0 01-.399-2.782 19.282 19.282 0 001.418-3.389 2.344 2.344 0 012.231-1.627h8.11v-9.374h-8.11a2.344 2.344 0 01-2.23-1.627 19.282 19.282 0 00-1.419-3.39 2.344 2.344 0 01.399-2.781l5.747-5.75-6.622-6.623-5.749 5.75a2.344 2.344 0 01-2.784.398 19.014 19.014 0 00-3.39-1.406 2.344 2.344 0 01-1.624-2.243v-8.11h-9.374v8.11a2.344 2.344 0 01-1.625 2.23 19.15 19.15 0 00-3.389 1.407 2.343 2.343 0 01-2.784-.398l-5.75-5.738-6.609 6.624 5.747 5.749a2.344 2.344 0 01.399 2.782 19.275 19.275 0 00-1.418 3.389 2.343 2.343 0 01-2.243 1.627h-8.11v9.374h8.11a2.344 2.344 0 012.23 1.627 19.282 19.282 0 001.419 3.39 2.344 2.344 0 01-.399 2.781l-5.735 5.75 6.621 6.623 5.75-5.75a2.344 2.344 0 012.784-.398 19.014 19.014 0 003.389 1.418 2.344 2.344 0 011.612 2.231v8.11z" fill="#F07C00"/><path d="M75 70.313A14.063 14.063 0 1189.063 56.25 14.077 14.077 0 0175 70.313zm0-23.438a9.375 9.375 0 100 18.75 9.375 9.375 0 000-18.75z" fill="#F07C00"/><path d="M131.25 107.813a2.342 2.342 0 002.344-2.344V7.031a2.342 2.342 0 00-2.344-2.343H30.469A14.077 14.077 0 0016.406 18.75v98.438A14.075 14.075 0 0030.47 131.25h7.03v11.719a2.347 2.347 0 001.447 2.165 2.35 2.35 0 002.554-.508l7.718-7.718 7.718 7.718a2.346 2.346 0 003.605-.355c.258-.386.395-.839.395-1.302V131.25h70.313a2.343 2.343 0 100-4.687 9.376 9.376 0 010-18.75zm-75 29.498l-5.374-5.374a2.341 2.341 0 00-3.314 0l-5.374 5.374v-17.78H56.25v17.78zm64.547-10.748h-59.86v-7.032h49.219c.622 0 1.218-.247 1.658-.686a2.347 2.347 0 000-3.315 2.347 2.347 0 00-1.658-.686H28.125a2.346 2.346 0 00-2.344 2.344 2.345 2.345 0 002.344 2.343H37.5v7.032h-7.031a9.376 9.376 0 010-18.75h90.328a13.977 13.977 0 000 18.75zm-90.328-23.438c-3.46 0-6.799 1.278-9.375 3.588V18.75a9.375 9.375 0 019.375-9.375h98.437v93.75H30.469z" fill="#F07C00"/></svg>