<svg width="50" height="50" fill="none" xmlns="http://www.w3.org/2000/svg"><path d="M46.786 40.159L36.02 29.456a2.328 2.328 0 00-.764-2.925 2.365 2.365 0 00-3.028.26l-1.112 1.107-1.839-1.828 8.087-8.045a2.34 2.34 0 011.966-.657 7.901 7.901 0 004.106-.604 7.85 7.85 0 003.224-2.6 7.774 7.774 0 00.7-7.93.783.783 0 00-.576-.432.791.791 0 00-.688.218l-4.104 4.08H39.77V7.89l4.104-4.08a.781.781 0 00-.215-1.257 7.9 7.9 0 00-7.977.698 7.822 7.822 0 00-2.615 3.205 7.773 7.773 0 00-.607 4.083 2.314 2.314 0 01-.664 1.955l-8.082 8.044L11.473 8.37l.555-.553a.781.781 0 00-.12-1.204L5.236 2.189a.79.79 0 00-.993.098L2.017 4.498a.78.78 0 00-.099.988l4.45 6.636a.785.785 0 00.577.344.688.688 0 00.079 0 .79.79 0 00.556-.23l.556-.552 12.239 12.171-7.31 7.262a2.437 2.437 0 01-2.022.659 7.861 7.861 0 00-3.484.38 7.825 7.825 0 00-2.967 1.854 7.846 7.846 0 00-2.287 5.422 7.843 7.843 0 002.13 5.483 7.805 7.805 0 002.548 1.792c.962.42 2 .643 3.05.656h.12a7.905 7.905 0 003.226-.687 7.864 7.864 0 002.659-1.942 7.777 7.777 0 001.928-6.122 2.339 2.339 0 01.664-1.963l7.311-7.261 1.837 1.828-1.113 1.108a2.333 2.333 0 00-.27 3.015 2.365 2.365 0 002.95.753l10.767 10.703a4.722 4.722 0 003.35 1.42 4.743 4.743 0 003.37-1.375 4.692 4.692 0 001.382-3.35 4.669 4.669 0 00-1.428-3.331zM32.904 13.605a3.873 3.873 0 001.117-3.251 6.219 6.219 0 01.375-3c.37-.955.97-1.804 1.746-2.475a6.325 6.325 0 015.75-1.316l-3.466 3.45a.78.78 0 00-.23.553v3.316a.78.78 0 00.23.553.79.79 0 00.556.23h3.336a.789.789 0 00.556-.23l3.47-3.446a6.215 6.215 0 01-1.32 5.718 6.287 6.287 0 01-2.488 1.738 6.32 6.32 0 01-3.018.374 3.917 3.917 0 00-3.27 1.107l-8.083 8.038-3.342-3.32 8.08-8.04zM3.583 5.15l1.314-1.307 5.34 3.54-3.092 3.075L3.583 5.15zm13.932 30.392a3.898 3.898 0 00-1.11 3.26 6.231 6.231 0 01-.722 3.74 6.283 6.283 0 01-2.77 2.634 6.332 6.332 0 01-7.202-1.187 6.229 6.229 0 01-1.236-7.154 6.277 6.277 0 012.632-2.769 6.33 6.33 0 013.76-.74 4.02 4.02 0 003.31-1.107l7.31-7.26 3.34 3.32-7.313 7.263zM9.247 10.581l1.113-1.106 19.643 19.528-1.113 1.106L9.247 10.58zm18.532 23.953a.782.782 0 010-1.106l1.667-1.657 2.224-2.213 1.67-1.658a.79.79 0 011.343.554.78.78 0 01-.23.553l-5.562 5.53a.789.789 0 01-1.111-.002zM45.674 45.69a3.236 3.236 0 01-4.45 0L30.56 35.087l2.225-2.212 2.225-2.212 10.664 10.602a3.127 3.127 0 01.922 2.212 3.112 3.112 0 01-.922 2.212z" fill="#F07C00"/><path d="M35.116 34.013a.782.782 0 00-1.104 1.104l9.486 9.486a.78.78 0 001.105-1.105l-9.487-9.485zm-23.199 1.518a.781.781 0 00-.755-.202l-3.485.937a.782.782 0 00-.552.553L6.191 40.3a.781.781 0 00.203.754l2.55 2.552a.781.781 0 00.755.202l3.486-.937a.78.78 0 00.553-.553l.937-3.486a.781.781 0 00-.202-.753l-2.556-2.549zm.427 5.953l-2.615.703-1.913-1.914.703-2.614 2.614-.703 1.914 1.913-.703 2.615zm16.333-19.057l5.469-5.468a.78.78 0 00-1.105-1.105l-5.468 5.469a.783.783 0 00.247 1.285.781.781 0 00.857-.18zm-7.354 5.146l-4.688 4.687a.783.783 0 00.247 1.285.781.781 0 00.858-.18l4.687-4.688a.781.781 0 00-1.104-1.104z" fill="#F07C00"/></svg>