<svg width="50" height="50" fill="none" xmlns="http://www.w3.org/2000/svg"><path d="M27.317 30.417h-4.643a.774.774 0 01-.774-.774v-2.904a10.916 10.916 0 01-.324-.135l-2.054 2.054a.774.774 0 01-1.094 0l-3.28-3.281a.774.774 0 010-1.094l2.053-2.055a8.342 8.342 0 01-.135-.323h-2.904a.774.774 0 01-.774-.774v-4.643a.774.774 0 01.774-.774h2.904a8.94 8.94 0 01.135-.324l-2.054-2.054a.774.774 0 010-1.094l3.281-3.28a.796.796 0 011.094 0l2.054 2.053c.105-.046.213-.09.324-.135V7.976a.774.774 0 01.774-.774h4.643a.774.774 0 01.774.774v2.904c.111.044.219.09.324.135l2.053-2.054a.774.774 0 011.095 0l3.28 3.281a.774.774 0 010 1.094L32.79 15.39c.046.105.09.213.135.324h2.904a.774.774 0 01.774.774v4.643a.774.774 0 01-.774.774h-2.904a8.503 8.503 0 01-.135.323l2.054 2.055a.774.774 0 010 1.094l-3.281 3.28a.796.796 0 01-1.095 0l-2.053-2.053c-.105.046-.213.09-.324.135v2.904a.774.774 0 01-.774.774zm-3.87-1.548h3.096v-2.677a.773.773 0 01.536-.737c.387-.12.762-.276 1.12-.468a.773.773 0 01.918.132l1.899 1.898 2.186-2.187-1.898-1.898a.774.774 0 01-.131-.919c.191-.357.348-.732.468-1.119a.774.774 0 01.736-.537h2.678v-3.095h-2.678a.775.775 0 01-.736-.537 6.368 6.368 0 00-.468-1.119.774.774 0 01.131-.918l1.898-1.899-2.186-2.187-1.898 1.899a.774.774 0 01-.92.131 6.29 6.29 0 00-1.119-.464.773.773 0 01-.536-.74V8.75h-3.095v2.677a.773.773 0 01-.537.737 6.271 6.271 0 00-1.118.464.774.774 0 01-.92-.131l-1.898-1.895-2.182 2.187 1.897 1.899a.774.774 0 01.132.918 6.368 6.368 0 00-.468 1.119.774.774 0 01-.74.537h-2.678v3.095h2.677a.774.774 0 01.737.537c.12.387.277.762.468 1.12a.774.774 0 01-.132.918l-1.893 1.898 2.186 2.187 1.898-1.898a.773.773 0 01.92-.132c.356.192.731.349 1.118.468a.773.773 0 01.533.737v2.677z" fill="#F07C00"/><path d="M24.995 23.453a4.643 4.643 0 110-9.286 4.643 4.643 0 010 9.286zm0-7.739a3.095 3.095 0 100 6.19 3.095 3.095 0 000-6.19z" fill="#F07C00"/><path d="M43.567 35.834a.774.774 0 00.774-.774V2.56a.774.774 0 00-.774-.774H10.293A4.648 4.648 0 005.65 6.429v32.5a4.648 4.648 0 004.643 4.643h2.321v3.869a.775.775 0 001.321.547l2.548-2.548 2.549 2.548a.774.774 0 001.32-.547v-3.87h23.215a.774.774 0 100-1.547 3.095 3.095 0 110-6.19zm-24.762 9.739l-1.774-1.775a.774.774 0 00-1.095 0l-1.774 1.775v-5.87h4.643v5.87zm21.31-3.549H20.353v-2.321h16.25a.774.774 0 000-1.548H9.52a.774.774 0 000 1.548h3.095v2.321h-2.321a3.095 3.095 0 110-6.19h29.823a4.616 4.616 0 000 6.19zm-29.822-7.738a4.636 4.636 0 00-3.095 1.185V6.429a3.095 3.095 0 013.095-3.096h32.5v30.953h-32.5z" fill="#F07C00"/></svg>