<svg width="50" height="50" fill="none" xmlns="http://www.w3.org/2000/svg"><path d="M45.363 11.166l-9.375-9.375a.781.781 0 00-.553-.228H12.78a.781.781 0 00-.781.78v4.688a.781.781 0 001.563 0V3.125h21.093v8.594a.781.781 0 00.781.781h8.594v34.375H13.56v-3.906a.781.781 0 10-1.562 0v4.687a.782.782 0 00.781.782H44.81a.781.781 0 00.782-.782V11.72a.781.781 0 00-.23-.553zM36.217 4.23l6.708 6.707h-6.708V4.23z" fill="#F07C00"/><path d="M40.123 25.781H26.061a.781.781 0 110-1.562h14.062a.781.781 0 110 1.562zm0-4.687H26.061a.781.781 0 010-1.563h14.062a.782.782 0 010 1.563zm0 9.375H26.061a.781.781 0 010-1.563h14.062a.782.782 0 010 1.563zm0-14.063H26.061a.781.781 0 110-1.562h14.062a.781.781 0 110 1.562zm0 18.75H26.061a.781.781 0 110-1.562h14.062a.781.781 0 110 1.562zm0 4.688H23.717a.781.781 0 010-1.563h16.406a.782.782 0 010 1.563z" fill="#F07C00"/><path fill-rule="evenodd" clip-rule="evenodd" d="M7.658 15.243c-.917.8-1.47 1.845-1.633 3.186H8.43c.133-.75.468-1.404 1.032-1.925m-1.805-1.26c1.117-.967 2.624-1.486 4.598-1.486 2.05 0 3.538.52 4.568 1.457l.002.002c1.03.929 1.582 2.245 1.582 4.059 0 1.502-.695 3.057-2.249 4.675l-1.994 1.961a.829.829 0 00-.038.041c-.745.846-1.142 1.97-1.263 3.3h-2.15c.053-1.006.213-1.787.456-2.368.3-.72.923-1.572 1.939-2.556 1.054-1.021 1.79-1.812 2.129-2.331a4.63 4.63 0 00.778-2.576c0-1.14-.285-2.138-.977-2.863-.69-.746-1.666-1.06-2.783-1.06-1.09 0-2.047.315-2.793 1.005m-2.83-2.442c1.465-1.268 3.365-1.867 5.623-1.867 2.31 0 4.218.588 5.619 1.863 1.422 1.284 2.096 3.06 2.096 5.218 0 2.032-.953 3.957-2.692 5.766a.548.548 0 01-.016.015l-1.98 1.949c-.539.624-.875 1.597-.895 3.039a.782.782 0 01-.781.77H9.912a.782.782 0 01-.782-.781c0-1.495.184-2.761.598-3.752.415-.995 1.203-2.02 2.293-3.076 1.072-1.039 1.68-1.713 1.907-2.061l.001-.003a3.062 3.062 0 00.524-1.72c0-.897-.224-1.448-.548-1.786a1.222 1.222 0 01-.011-.012c-.307-.334-.806-.562-1.638-.562-.777 0-1.328.217-1.732.59-.376.348-.595.835-.595 1.558 0 .432-.35.782-.782.782H5.192a.781.781 0 01-.782-.79c.024-2.111.75-3.854 2.22-5.138l.003-.002zm5.232 19.667c-.521 0-.85.148-1.075.373l-.007.008c-.229.222-.366.524-.366.986 0 .412.123.713.352.956.205.209.532.362 1.096.362.567 0 .895-.155 1.1-.366.239-.245.364-.544.364-.952 0-.432-.132-.736-.373-.977l-.007-.008c-.225-.23-.554-.382-1.084-.382zm-2.177-.736c.577-.574 1.333-.827 2.177-.827.857 0 1.622.26 2.2.85.56.562.828 1.276.828 2.08 0 .786-.265 1.485-.808 2.042-.576.592-1.355.84-2.22.84-.865 0-1.644-.248-2.22-.84l-.008-.008c-.529-.558-.783-1.255-.783-2.034 0-.817.262-1.544.834-2.103z" fill="#F07C00"/></svg>