<svg width="32" height="32" fill="none" xmlns="http://www.w3.org/2000/svg"><path d="M2.281 14.372L14.647 4.176a.772.772 0 011.262.597v5.373c6.003.219 10.128 2.337 12.274 6.304 1.848 3.421 1.83 7.474 1.814 10.155v.62a.78.78 0 01-.58.752.751.751 0 01-.195.023.764.764 0 01-.671-.39c-4.19-7.389-7.638-7.745-12.636-7.762v5.356a.77.77 0 01-.447.7.786.786 0 01-.827-.103l-12.36-10.23a.78.78 0 010-1.2zm12.08 9.185v-4.484a.75.75 0 01.229-.545.784.784 0 01.545-.23c3.121 0 5.514.086 7.838 1.171 2.009.936 3.747 2.526 5.463 5.023-.069-2.279-.367-5-1.613-7.302-1.974-3.65-5.795-5.46-11.688-5.51a.778.778 0 01-.77-.776V6.415l-10.368 8.56 10.363 8.582z" fill="#376A98" fill-opacity=".5"/></svg>