<svg width="144" height="146" fill="none" xmlns="http://www.w3.org/2000/svg"><path d="M51.872 110.943c28.63 0 51.841-23.21 51.841-51.84 0-28.631-23.21-51.841-51.841-51.841-28.63 0-51.84 23.21-51.84 51.84 0 28.632 23.21 51.841 51.84 51.841z" fill="#376A98" fill-opacity=".25"/><path d="M117.925 143.2h-75.85c-7.037 0-12.742-5.705-12.742-12.741V54.564c0-7.037 5.705-12.741 12.741-12.741h75.851c7.037 0 12.741 5.704 12.741 12.741v75.895c0 7.036-5.704 12.741-12.741 12.741z" fill="#fff"/><path d="M117.926 145.867H42.074c-8.496 0-15.407-6.912-15.407-15.408V54.565c0-8.496 6.91-15.409 15.407-15.409h75.851c8.496 0 15.408 6.913 15.408 15.409v75.894c0 8.496-6.911 15.408-15.407 15.408zM42.074 44.489C36.519 44.489 32 49.008 32 54.564v75.895c0 5.554 4.52 10.074 10.074 10.074h75.851c5.555 0 10.074-4.52 10.074-10.074V54.565c0-5.556-4.519-10.076-10.074-10.076H42.074z" fill="#376A98"/><path d="M52.035 68.212L83.54 93.824l57.761-59.703v37.681L83.54 125.973 44.895 87.178l7.139-18.966z" fill="#CDDAE5"/><path d="M83.54 128.64a2.661 2.661 0 01-1.889-.785L43.007 89.059a2.668 2.668 0 01-.607-2.82l7.14-18.966a2.668 2.668 0 014.177-1.13l29.607 24.07 56.061-57.944a2.666 2.666 0 014.584 1.854v37.68c0 .736-.305 1.441-.843 1.945L85.364 127.92a2.66 2.66 0 01-1.823.72zM47.997 86.511l35.608 35.748 55.031-51.612V40.713L85.457 95.678a2.668 2.668 0 01-3.6.215l-28.63-23.276-5.231 13.894zm78.317-74.715a2.667 2.667 0 01-1.886-4.552l5.656-5.657a2.667 2.667 0 013.771 3.77l-5.656 5.658a2.656 2.656 0 01-1.885.781zm-13.199 13.199a2.667 2.667 0 01-1.886-4.552l5.656-5.657a2.667 2.667 0 013.771 3.77L115 24.215a2.656 2.656 0 01-1.885.781zm5.03-13.825a2.66 2.66 0 01-1.886-.781l-5.703-5.704a2.667 2.667 0 013.771-3.77l5.703 5.703a2.667 2.667 0 01-1.885 4.552zm13.825 13.825a2.66 2.66 0 01-1.886-.781l-5.656-5.657a2.667 2.667 0 013.771-3.771l5.656 5.657a2.667 2.667 0 01-1.885 4.552z" fill="#376A98"/></svg>