<svg width="44" height="44" fill="none" xmlns="http://www.w3.org/2000/svg"><path fill-rule="evenodd" clip-rule="evenodd" d="M22 0C9.85 0 0 9.85 0 22s9.85 22 22 22 22-9.85 22-22S34.15 0 22 0zm0 2.64C11.308 2.64 2.64 11.308 2.64 22S11.308 41.36 22 41.36 41.36 32.692 41.36 22 32.692 2.64 22 2.64zm9.637 27.729c.017-.09.029-.182.043-.272V13.903c-.014-.089-.025-.178-.042-.266-.17-.907-.885-1.611-1.764-1.737-.036-.005-.072-.013-.108-.02H14.234c-.094.018-.188.03-.28.053-.858.204-1.493.926-1.615 1.835-.005.038-.013.075-.019.113V30.12c.018.103.032.206.054.309.19.876.905 1.556 1.757 1.67l.124.021h15.49c.1-.018.202-.033.301-.055.79-.176 1.437-.865 1.591-1.696zm-17.222-1.242c0 .43.357.801.769.801h13.629c.416 0 .77-.37.77-.803v-9.038h-1.847c.26.872.34 1.76.239 2.663a6.377 6.377 0 01-.836 2.523 6.154 6.154 0 01-1.764 1.935 5.798 5.798 0 01-6.311.284 6.022 6.022 0 01-2.338-2.462c-.818-1.575-.95-3.229-.469-4.944h-1.843v9.041zM21.91 26.1c2.192.05 3.965-1.782 4.011-4.009.047-2.296-1.724-4.193-3.92-4.192-2.148 0-3.894 1.805-3.924 4.04-.03 2.295 1.726 4.114 3.833 4.161zm7.674-9.835v-1.917c0-.459-.347-.823-.785-.824H26.97c-.437.001-.785.367-.785.825 0 .633-.002 1.267.002 1.9 0 .095.018.193.047.283.11.337.405.544.766.546h.883c.319-.004.638.002.957-.006.41-.01.744-.378.744-.807z" fill="#fff"/></svg>