<svg width="44" height="44" fill="none" xmlns="http://www.w3.org/2000/svg"><path fill-rule="evenodd" clip-rule="evenodd" d="M44 22C44 9.85 34.15 0 22 0S0 9.85 0 22s9.85 22 22 22 22-9.85 22-22zm-2.64 0c0-10.692-8.668-19.36-19.36-19.36S2.64 11.308 2.64 22 11.308 41.36 22 41.36 41.36 32.692 41.36 22z" fill="#fff"/><path d="M30.25 16.5a4.125 4.125 0 01-4.125-4.125 1.375 1.375 0 00-2.75 0v13.75A4.125 4.125 0 1119.25 22a1.375 1.375 0 000-2.75 6.875 6.875 0 106.875 6.875v-8.25a6.765 6.765 0 004.125 1.375 1.375 1.375 0 000-2.75z"/></svg>