<svg width="44" height="44" fill="none" xmlns="http://www.w3.org/2000/svg"><path fill-rule="evenodd" clip-rule="evenodd" d="M44 22C44 9.85 34.15 0 22 0S0 9.85 0 22s9.85 22 22 22 22-9.85 22-22zm-2.64 0c0-10.692-8.668-19.36-19.36-19.36S2.64 11.308 2.64 22 11.308 41.36 22 41.36 41.36 32.692 41.36 22zm-9.004 5.074c-.263 1.141-1.196 1.983-2.32 2.108-2.661.298-5.355.3-8.037.298-2.682.001-5.376 0-8.037-.298-1.124-.125-2.058-.967-2.32-2.108-.374-1.626-.374-3.4-.374-5.074s.005-3.448.378-5.074c.263-1.141 1.196-1.983 2.32-2.108 2.661-.298 5.355-.3 8.037-.298 2.682-.001 5.376 0 8.037.298 1.124.125 2.058.967 2.32 2.108.374 1.626.372 3.4.372 5.074s-.002 3.448-.376 5.074zM20.068 18.04l5.94 3.43-5.94 3.429V18.04z" fill="#fff"/></svg>